# xmcd
#
# Track frame offsets: 
#        150
#        16024
#        31677
#        48638
#        64336
#        94683
#        108478
#        123029
#        148028
#        163348
#
# Disc length: 2343 seconds
#
# Revision: 1
# Processed by: cddbd v1.5.2PL0 Copyright (c) Steve Scherf et al.
# Submitted via: ExactAudioCopy v0.99pb5
#
DISCID=8009250a
DTITLE=Artie "Bluesboy" White - Can't Get Enough
DYEAR=2002
DGENRE=Blues
TTITLE0=Can't Get Enough
TTITLE1=Not The Same Person
TTITLE2=Love You Don't Know About
TTITLE3=I'm Crazy About You Baby
TTITLE4=My Best Friend
TTITLE5=Monkey Dog 2000
TTITLE6=Trap
TTITLE7=I've Been Down So Long
TTITLE8=Adorable One
TTITLE9=I'll Make It Better
EXTD=YEAR: 2001
EXTT0=
EXTT1=
EXTT2=
EXTT3=
EXTT4=
EXTT5=
EXTT6=
EXTT7=
EXTT8=
EXTT9=
PLAYORDER=
